<svg width="17" height="14" xmlns="http://www.w3.org/2000/svg" xmlns:xlink="http://www.w3.org/1999/xlink" xmlns:svgjs="http://svgjs.com/svgjs" viewBox="0 0.085 17 13.829" fill="#6e6e6e"><svg xmlns="http://www.w3.org/2000/svg" width="17" height="14" viewBox="1.002 1.002 15.997 13.014"><path paint-order="stroke fill markers" fill-rule="evenodd" d="M8.5 11.183c.768 0 1.39.627 1.39 1.4 0 .774-.622 1.401-1.39 1.401-.768 0-1.39-.627-1.39-1.4 0-.774.622-1.401 1.39-1.401zm5-.031c.785 0 1.422.64 1.422 1.432 0 .79-.637 1.432-1.422 1.432a1.427 1.427 0 01-1.422-1.432c0-.791.637-1.432 1.422-1.432zm2.796-9.099a.999.999 0 00-1.253.66s-.995 2.513-1.503 4.31c-.295.806-.677 1.03-1.477 1.03H9.938c-.688 0-1.148-.284-1.477-1.039-.916-1.8-2.44-5.056-2.44-5.056-.19-.583-.95-.956-1.363-.956H2.002c-.553 0-1 .45-1 1.007 0 .557.447 1.008 1 1.008H4.25l2.795 5.56c.588.99 1.143 1.49 2.08 1.49h3.844c1.222 0 1.833-.436 2.175-1.49l1.808-5.261a1.009 1.009 0 00-.657-1.263c-.526-.166.528.167 0 0-.526-.166.528.167 0 0-.526-.166.528.167 0 0z"/></svg></svg>