<svg width="17" height="16" xmlns="http://www.w3.org/2000/svg" xmlns:xlink="http://www.w3.org/1999/xlink" xmlns:svgjs="http://svgjs.com/svgjs" viewBox="0 0.028 17 15.944" fill="#57c5a0"><svg xmlns="http://www.w3.org/2000/svg" width="17" height="16" viewBox="1.001 1.012 15.997 15.003"><path paint-order="stroke fill markers" fill-rule="evenodd" d="M8.5 13.191c.768 0 1.39.626 1.39 1.397s-.622 1.396-1.39 1.396c-.768 0-1.39-.625-1.39-1.396 0-.771.622-1.397 1.39-1.397zm5-.03c.785 0 1.422.638 1.422 1.427 0 .788-.637 1.428-1.422 1.428-.785 0-1.422-.64-1.422-1.428 0-.789.637-1.428 1.422-1.428zm2.796-9.07a.999.999 0 00-1.252.657s-.996 2.505-1.504 4.297c-.295.803-.677 1.026-1.477 1.026H9.938c-.688 0-1.148-.282-1.477-1.035-.916-1.794-2.44-5.04-2.44-5.04-.19-.583-.95-.954-1.363-.954H2.002c-.553 0-1 .449-1 1.004 0 .555.447 1.004 1 1.004H4.25l2.796 5.543c.588.988 1.143 1.487 2.08 1.487h3.844c1.222 0 1.833-.436 2.175-1.487l1.808-5.245a1.005 1.005 0 00-.657-1.258c-.526-.166.528.166 0 0-.526-.166.528.166 0 0-.526-.166.528.166 0 0zM10 4.052V2.017c0-.554.448-1.004 1-1.005.552 0 1 .451 1 1.005v2.036h2.536L11 7.603l-3.535-3.55H10z"/></svg></svg>