<svg width="17" height="11" xmlns="http://www.w3.org/2000/svg" xmlns:xlink="http://www.w3.org/1999/xlink" xmlns:svgjs="http://svgjs.com/svgjs" viewBox="0 0.183 17 10.633" fill="#6e6e6e"><svg xmlns="http://www.w3.org/2000/svg" width="17" height="11" viewBox="1 1.997 16 10.007"><path paint-order="stroke fill markers" fill-rule="evenodd" d="M16.983 6.89c-.006-.021-.003-.043-.01-.064-.003-.008-.01-.013-.014-.021-.005-.012-.004-.025-.01-.037C15.496 3.988 12.335 1.997 9 1.997S2.504 3.985 1.052 6.764c-.007.012-.006.025-.01.037-.004.008-.011.013-.014.022-.008.02-.005.043-.01.064-.009.037-.018.074-.018.112 0 .038.01.074.018.112.005.02.002.043.01.064.003.008.01.013.013.02.005.013.004.026.01.038 1.453 2.779 4.614 4.771 7.95 4.771 3.334 0 6.495-1.988 7.948-4.768.006-.011.005-.024.01-.037.003-.007.01-.013.013-.02.008-.022.005-.044.01-.065A.436.436 0 0017 7.002c0-.038-.009-.074-.017-.112zM9 11c-2.81 0-5.628-1.595-7-4 1.379-2.408 4.192-4 7-4 2.811 0 5.628 1.596 7 4.001-1.379 2.409-4.192 4-7 4zm0-6h-.003A2.002 2.002 0 007 7a.25.25 0 10.5 0c0-.827.673-1.5 1.501-1.5v-.001a.25.25 0 100-.5zm-.012-1.502a3.505 3.505 0 100 7.01 3.505 3.505 0 000-7.01zm0 6.51a3.008 3.008 0 01-3.004-3.005 3.007 3.007 0 013.004-3.004 3.007 3.007 0 013.005 3.004 3.008 3.008 0 01-3.005 3.005z"/></svg></svg>