<svg xmlns="http://www.w3.org/2000/svg" width="37" height="37"><path d="M3.7 0A3.69 3.69 0 000 3.7v29.6A3.69 3.69 0 003.7 37h29.6a3.69 3.69 0 003.7-3.7V3.7A3.69 3.69 0 0033.3 0zm11.155 3.914h7.762l-2.398 1.41H17.82c.832.528 1.516 1.235 1.973 2.188.46.953.637 2 .637 3.035 0 .867-.082 1.644-.352 2.328-.273.668-.601 1.207-.988 1.621-.387.41-.813.774-1.2 1.129a6.23 6.23 0 00-.988 1.059c-.27.363-.422.777-.422 1.203 0 .304.09.62.282.914.199.293.468.574.773.847.32.27.684.551 1.059.844.379.293.754.625 1.129.988.379.352.683.707.992 1.13.312.413.586.894.773 1.484.2.574.282 1.234.285 1.902-.003 1.883-.828 3.504-2.472 4.942-1.79 1.539-4.258 2.328-7.41 2.328-.696 0-1.399-.024-2.118-.141-.703-.121-1.386-.355-2.113-.637-.719-.27-1.355-.578-1.906-.988a4.946 4.946 0 01-1.41-1.621c-.356-.637-.496-1.328-.496-2.121 0-.715.203-1.524.636-2.395.375-.75.942-1.367 1.692-1.906a8.111 8.111 0 012.539-1.27 18.847 18.847 0 012.754-.636c.867-.14 1.789-.188 2.68-.207-.754-.98-1.13-1.907-1.13-2.684 0-.14-.023-.226 0-.355.024-.14.106-.258.145-.352.035-.094.078-.27.14-.426.06-.164.044-.254.071-.351a9.31 9.31 0 01-1.2.07c-1.753 0-3.257-.539-4.515-1.691-1.246-1.153-1.906-2.633-1.906-4.375 0-1.645.574-3.082 1.691-4.375C8.562 5.5 9.906 4.629 11.54 4.265a15.771 15.771 0 013.316-.35zm-2.398 1.27c-1.094 0-1.941.386-2.543 1.199-.598.812-.918 1.832-.918 2.96 0 .555.086 1.087.215 1.696a9.24 9.24 0 00.637 1.836c.28.61.609 1.195.988 1.691.375.48.867.895 1.41 1.2.54.304 1.094.425 1.695.425 1.137 0 1.961-.355 2.465-1.058.52-.719.778-1.649.778-2.824 0-.704-.082-1.47-.282-2.258a11.059 11.059 0 00-.847-2.328 5.01 5.01 0 00-1.48-1.836 3.386 3.386 0 00-2.118-.703zm13.969 5.503h2.258v4.516h4.515v2.258h-4.515v4.516h-2.258V17.46H21.91v-2.258h4.516zM14.82 22.392c-.156.004-.336.011-.527.011-.637 0-1.227-.015-1.836.067-.61.082-1.246.285-1.906.496-.656.21-1.27.445-1.762.773-.496.332-.883.79-1.203 1.34a3.828 3.828 0 00-.492 1.91c0 .797.222 1.489.633 2.114a4.381 4.381 0 001.625 1.48c.683.367 1.375.602 2.117.777a9.844 9.844 0 002.258.282c.695 0 1.351-.059 1.976-.211a6.556 6.556 0 001.832-.707c.555-.305.953-.715 1.274-1.27.328-.55.492-1.234.492-1.973 0-.25-.012-.484-.074-.707-.043-.234-.079-.449-.137-.636-.059-.2-.203-.352-.356-.563-.14-.21-.246-.426-.351-.566-.094-.153-.285-.293-.492-.492-.215-.203-.38-.399-.496-.493-.106-.105-.293-.226-.563-.425-.262-.2-.46-.352-.566-.426-.094-.067-.27-.219-.563-.418-.285-.203-.426-.309-.496-.352-.098-.011-.23-.015-.387-.011zm0 0" id="surface1"/></svg>