<svg xmlns="http://www.w3.org/2000/svg" width="37" height="37"><path d="M32.48 0A4.525 4.525 0 0137 4.52v27.96A4.525 4.525 0 0132.48 37H4.52A4.525 4.525 0 010 32.48V4.52A4.525 4.525 0 014.52 0zM11.598 30.59V14.277H6.172V30.59zm19.55 0v-9.356c0-5.011-2.675-7.34-6.246-7.34-2.875 0-4.164 1.583-4.882 2.692v-2.309h-5.422c.07 1.532 0 16.313 0 16.313h5.422v-9.11c0-.488.035-.976.175-1.324.39-.976 1.285-1.984 2.782-1.984 1.96 0 2.75 1.496 2.75 3.687v8.73zM8.922 6.41c-1.856 0-3.07 1.223-3.07 2.82 0 1.567 1.175 2.817 2.996 2.817h.035c1.89 0 3.07-1.25 3.07-2.817-.035-1.597-1.176-2.816-3.031-2.82zm0 0" fill-rule="evenodd" id="surface1"/></svg>