<svg width="17" height="14" xmlns="http://www.w3.org/2000/svg" xmlns:xlink="http://www.w3.org/1999/xlink" xmlns:svgjs="http://svgjs.com/svgjs" viewBox="0 0.097 17 13.806" fill="#6e6e6e"><svg xmlns="http://www.w3.org/2000/svg" width="17" height="14" viewBox="1.99 1.999 16.01 13.002"><path paint-order="stroke fill markers" fill-rule="evenodd" d="M5.973 9.998s1.539-2.436 6.987-2.436v2.442L18 6.02l-5.04-4.021v2.344c-.129 0-6.987.29-6.987 5.655zM15 11c-.021 0 0 .447 0 1v.001h-.01v2h-12v-10h4v-.003L7 4c.553 0 1 .021 1 0a1 1 0 00-1-1l-.01.002v-.001h-3a2 2 0 00-2 2v8a2 2 0 002 2h10c1.073 0 1.94-.846 1.99-1.905.004-.033.02-.062.02-.096v-1a1 1 0 00-1-1z"/></svg></svg>