<svg width="17" height="17" xmlns="http://www.w3.org/2000/svg" xmlns:xlink="http://www.w3.org/1999/xlink" xmlns:svgjs="http://svgjs.com/svgjs" fill="#6e6e6e"><svg xmlns="http://www.w3.org/2000/svg" width="17" height="17" viewBox="2.013 1.014 15.973 15.974"><path paint-order="stroke fill markers" fill-rule="evenodd" d="M17.927 6.969a1.159 1.159 0 00-.92-.779l-4.156-.638-1.807-3.871a1.153 1.153 0 00-2.088 0L7.149 5.552l-4.156.638a1.163 1.163 0 00-.651 1.956l3.045 3.14-.706 4.354c-.072.439.112.879.473 1.136a1.15 1.15 0 001.223.067L10 14.83l3.624 2.014a1.154 1.154 0 001.222-.067c.361-.257.545-.697.474-1.136l-.707-4.354 3.046-3.14c.302-.31.405-.764.268-1.177zm-4.14 3.507a1.163 1.163 0 00-.312.996l.706 4.356-3.623-2.014a1.154 1.154 0 00-1.116 0l-3.624 2.014.707-4.356a1.163 1.163 0 00-.312-.996L3.167 7.337l4.156-.639c.38-.058.707-.303.87-.653L10 2.175l1.807 3.87c.163.35.49.595.87.653l4.156.639-3.045 3.14z"/></svg></svg>