<svg xmlns="http://www.w3.org/2000/svg" width="37" height="37"><path d="M32.48 0A4.525 4.525 0 0137 4.52v27.96A4.525 4.525 0 0132.48 37H4.52A4.525 4.525 0 010 32.48V4.52A4.525 4.525 0 014.52 0zM14.13 30.68c9.824 0 15.195-8.14 15.195-15.196 0-.23 0-.464-.012-.687a10.904 10.904 0 002.672-2.766 10.95 10.95 0 01-3.07.84 5.331 5.331 0 002.348-2.957 10.828 10.828 0 01-3.387 1.297 5.311 5.311 0 00-3.898-1.684 5.339 5.339 0 00-5.34 5.336c0 .422.043.832.144 1.219A15.131 15.131 0 017.773 10.5a5.34 5.34 0 00-.722 2.68c0 1.851.941 3.488 2.383 4.441a5.212 5.212 0 01-2.414-.664v.066a5.344 5.344 0 004.285 5.239 5.337 5.337 0 01-2.414.09 5.34 5.34 0 004.984 3.71 10.734 10.734 0 01-7.906 2.204 14.88 14.88 0 008.16 2.414zm0 0" fill-rule="evenodd" id="surface1"/></svg>